<mxfile host="app.diagrams.net" modified="2022-09-22T18:47:10.509Z" agent="5.0 (Windows NT 10.0; Win64; x64) AppleWebKit/537.36 (KHTML, like Gecko) Chrome/105.0.0.0 Safari/537.36" etag="3l3O2VFp1rq6jNQmxnOJ" version="20.3.6" type="github">
  <diagram id="R-b0aeAqIxfsAm3HB73M" name="Página-1">
    <mxGraphModel dx="2426" dy="1314" grid="1" gridSize="10" guides="1" tooltips="1" connect="1" arrows="1" fold="1" page="1" pageScale="1" pageWidth="827" pageHeight="1169" math="0" shadow="0">
      <root>
        <mxCell id="0" />
        <mxCell id="1" parent="0" />
        <mxCell id="OFctEyF973jwaN0Gu7Ld-3" value="" style="edgeStyle=orthogonalEdgeStyle;rounded=0;orthogonalLoop=1;jettySize=auto;html=1;" edge="1" parent="1" source="OFctEyF973jwaN0Gu7Ld-1" target="OFctEyF973jwaN0Gu7Ld-2">
          <mxGeometry relative="1" as="geometry" />
        </mxCell>
        <mxCell id="OFctEyF973jwaN0Gu7Ld-1" value="inicio" style="ellipse;whiteSpace=wrap;html=1;" vertex="1" parent="1">
          <mxGeometry x="610" y="20" width="60" height="40" as="geometry" />
        </mxCell>
        <mxCell id="OFctEyF973jwaN0Gu7Ld-5" value="" style="edgeStyle=orthogonalEdgeStyle;rounded=0;orthogonalLoop=1;jettySize=auto;html=1;" edge="1" parent="1" source="OFctEyF973jwaN0Gu7Ld-2" target="OFctEyF973jwaN0Gu7Ld-4">
          <mxGeometry relative="1" as="geometry" />
        </mxCell>
        <mxCell id="OFctEyF973jwaN0Gu7Ld-2" value="cal1&lt;br&gt;cal2&lt;br&gt;cal3&lt;br&gt;cal4&lt;br&gt;prom" style="shape=parallelogram;perimeter=parallelogramPerimeter;whiteSpace=wrap;html=1;fixedSize=1;" vertex="1" parent="1">
          <mxGeometry x="600" y="80" width="80" height="80" as="geometry" />
        </mxCell>
        <mxCell id="OFctEyF973jwaN0Gu7Ld-7" value="" style="edgeStyle=orthogonalEdgeStyle;rounded=0;orthogonalLoop=1;jettySize=auto;html=1;" edge="1" parent="1" source="OFctEyF973jwaN0Gu7Ld-4" target="OFctEyF973jwaN0Gu7Ld-6">
          <mxGeometry relative="1" as="geometry" />
        </mxCell>
        <mxCell id="OFctEyF973jwaN0Gu7Ld-4" value="&quot;Ingrese calificación&quot;" style="shape=document;whiteSpace=wrap;html=1;boundedLbl=1;" vertex="1" parent="1">
          <mxGeometry x="580" y="180" width="120" height="40" as="geometry" />
        </mxCell>
        <mxCell id="OFctEyF973jwaN0Gu7Ld-9" value="" style="edgeStyle=orthogonalEdgeStyle;rounded=0;orthogonalLoop=1;jettySize=auto;html=1;" edge="1" parent="1" source="OFctEyF973jwaN0Gu7Ld-6" target="OFctEyF973jwaN0Gu7Ld-8">
          <mxGeometry relative="1" as="geometry" />
        </mxCell>
        <mxCell id="OFctEyF973jwaN0Gu7Ld-6" value="cal1" style="shape=parallelogram;perimeter=parallelogramPerimeter;whiteSpace=wrap;html=1;fixedSize=1;" vertex="1" parent="1">
          <mxGeometry x="600" y="240" width="80" height="40" as="geometry" />
        </mxCell>
        <mxCell id="OFctEyF973jwaN0Gu7Ld-13" value="" style="edgeStyle=orthogonalEdgeStyle;rounded=0;orthogonalLoop=1;jettySize=auto;html=1;entryX=0.5;entryY=0;entryDx=0;entryDy=0;" edge="1" parent="1" source="OFctEyF973jwaN0Gu7Ld-8" target="OFctEyF973jwaN0Gu7Ld-12">
          <mxGeometry relative="1" as="geometry">
            <Array as="points">
              <mxPoint x="550" y="330" />
            </Array>
          </mxGeometry>
        </mxCell>
        <mxCell id="OFctEyF973jwaN0Gu7Ld-8" value="cal1 &amp;gt;0 y &amp;lt;10" style="rhombus;whiteSpace=wrap;html=1;" vertex="1" parent="1">
          <mxGeometry x="590" y="300" width="100" height="60" as="geometry" />
        </mxCell>
        <mxCell id="OFctEyF973jwaN0Gu7Ld-17" value="" style="edgeStyle=orthogonalEdgeStyle;rounded=0;orthogonalLoop=1;jettySize=auto;html=1;" edge="1" parent="1" source="OFctEyF973jwaN0Gu7Ld-12" target="OFctEyF973jwaN0Gu7Ld-16">
          <mxGeometry relative="1" as="geometry" />
        </mxCell>
        <mxCell id="OFctEyF973jwaN0Gu7Ld-12" value="&quot;Ingrese calificación&quot;" style="shape=document;whiteSpace=wrap;html=1;boundedLbl=1;" vertex="1" parent="1">
          <mxGeometry x="490" y="360" width="120" height="40" as="geometry" />
        </mxCell>
        <mxCell id="OFctEyF973jwaN0Gu7Ld-19" value="" style="edgeStyle=orthogonalEdgeStyle;rounded=0;orthogonalLoop=1;jettySize=auto;html=1;" edge="1" parent="1" source="OFctEyF973jwaN0Gu7Ld-16" target="OFctEyF973jwaN0Gu7Ld-18">
          <mxGeometry relative="1" as="geometry" />
        </mxCell>
        <mxCell id="OFctEyF973jwaN0Gu7Ld-16" value="cal2" style="shape=parallelogram;perimeter=parallelogramPerimeter;whiteSpace=wrap;html=1;fixedSize=1;" vertex="1" parent="1">
          <mxGeometry x="510" y="420" width="80" height="40" as="geometry" />
        </mxCell>
        <mxCell id="OFctEyF973jwaN0Gu7Ld-21" value="" style="edgeStyle=orthogonalEdgeStyle;rounded=0;orthogonalLoop=1;jettySize=auto;html=1;" edge="1" parent="1" source="OFctEyF973jwaN0Gu7Ld-18" target="OFctEyF973jwaN0Gu7Ld-20">
          <mxGeometry relative="1" as="geometry">
            <Array as="points">
              <mxPoint x="440" y="510" />
            </Array>
          </mxGeometry>
        </mxCell>
        <mxCell id="OFctEyF973jwaN0Gu7Ld-18" value="cal2 &amp;gt;0 y &amp;lt;10" style="rhombus;whiteSpace=wrap;html=1;" vertex="1" parent="1">
          <mxGeometry x="500" y="480" width="100" height="60" as="geometry" />
        </mxCell>
        <mxCell id="OFctEyF973jwaN0Gu7Ld-23" value="" style="edgeStyle=orthogonalEdgeStyle;rounded=0;orthogonalLoop=1;jettySize=auto;html=1;" edge="1" parent="1" source="OFctEyF973jwaN0Gu7Ld-20" target="OFctEyF973jwaN0Gu7Ld-22">
          <mxGeometry relative="1" as="geometry" />
        </mxCell>
        <mxCell id="OFctEyF973jwaN0Gu7Ld-20" value="&quot;Ingrese calificación&quot;" style="shape=document;whiteSpace=wrap;html=1;boundedLbl=1;" vertex="1" parent="1">
          <mxGeometry x="380" y="530" width="120" height="40" as="geometry" />
        </mxCell>
        <mxCell id="OFctEyF973jwaN0Gu7Ld-25" value="" style="edgeStyle=orthogonalEdgeStyle;rounded=0;orthogonalLoop=1;jettySize=auto;html=1;" edge="1" parent="1" source="OFctEyF973jwaN0Gu7Ld-22" target="OFctEyF973jwaN0Gu7Ld-24">
          <mxGeometry relative="1" as="geometry" />
        </mxCell>
        <mxCell id="OFctEyF973jwaN0Gu7Ld-22" value="cal3" style="shape=parallelogram;perimeter=parallelogramPerimeter;whiteSpace=wrap;html=1;fixedSize=1;" vertex="1" parent="1">
          <mxGeometry x="400" y="585" width="80" height="40" as="geometry" />
        </mxCell>
        <mxCell id="OFctEyF973jwaN0Gu7Ld-27" value="" style="edgeStyle=orthogonalEdgeStyle;rounded=0;orthogonalLoop=1;jettySize=auto;html=1;entryX=0.5;entryY=0;entryDx=0;entryDy=0;" edge="1" parent="1" source="OFctEyF973jwaN0Gu7Ld-24" target="OFctEyF973jwaN0Gu7Ld-26">
          <mxGeometry relative="1" as="geometry" />
        </mxCell>
        <mxCell id="OFctEyF973jwaN0Gu7Ld-24" value="cal3 &amp;gt;0 y &amp;lt;10" style="rhombus;whiteSpace=wrap;html=1;" vertex="1" parent="1">
          <mxGeometry x="390" y="650" width="100" height="60" as="geometry" />
        </mxCell>
        <mxCell id="OFctEyF973jwaN0Gu7Ld-29" value="" style="edgeStyle=orthogonalEdgeStyle;rounded=0;orthogonalLoop=1;jettySize=auto;html=1;" edge="1" parent="1" source="OFctEyF973jwaN0Gu7Ld-26" target="OFctEyF973jwaN0Gu7Ld-28">
          <mxGeometry relative="1" as="geometry" />
        </mxCell>
        <mxCell id="OFctEyF973jwaN0Gu7Ld-26" value="&quot;Ingrese calificación&quot;" style="shape=document;whiteSpace=wrap;html=1;boundedLbl=1;" vertex="1" parent="1">
          <mxGeometry x="260" y="710" width="120" height="40" as="geometry" />
        </mxCell>
        <mxCell id="OFctEyF973jwaN0Gu7Ld-31" value="" style="edgeStyle=orthogonalEdgeStyle;rounded=0;orthogonalLoop=1;jettySize=auto;html=1;" edge="1" parent="1" source="OFctEyF973jwaN0Gu7Ld-28" target="OFctEyF973jwaN0Gu7Ld-30">
          <mxGeometry relative="1" as="geometry" />
        </mxCell>
        <mxCell id="OFctEyF973jwaN0Gu7Ld-28" value="cal4" style="shape=parallelogram;perimeter=parallelogramPerimeter;whiteSpace=wrap;html=1;fixedSize=1;" vertex="1" parent="1">
          <mxGeometry x="280" y="760" width="80" height="40" as="geometry" />
        </mxCell>
        <mxCell id="OFctEyF973jwaN0Gu7Ld-35" value="" style="edgeStyle=orthogonalEdgeStyle;rounded=0;orthogonalLoop=1;jettySize=auto;html=1;" edge="1" parent="1" source="OFctEyF973jwaN0Gu7Ld-30" target="OFctEyF973jwaN0Gu7Ld-34">
          <mxGeometry relative="1" as="geometry" />
        </mxCell>
        <mxCell id="OFctEyF973jwaN0Gu7Ld-30" value="cal4 &amp;gt;0 y &amp;lt;10" style="rhombus;whiteSpace=wrap;html=1;" vertex="1" parent="1">
          <mxGeometry x="270" y="820" width="100" height="60" as="geometry" />
        </mxCell>
        <mxCell id="OFctEyF973jwaN0Gu7Ld-37" value="" style="edgeStyle=orthogonalEdgeStyle;rounded=0;orthogonalLoop=1;jettySize=auto;html=1;" edge="1" parent="1" source="OFctEyF973jwaN0Gu7Ld-34" target="OFctEyF973jwaN0Gu7Ld-36">
          <mxGeometry relative="1" as="geometry" />
        </mxCell>
        <mxCell id="OFctEyF973jwaN0Gu7Ld-34" value="prom = (cal1+cal2+cal3+cal4)/4" style="whiteSpace=wrap;html=1;" vertex="1" parent="1">
          <mxGeometry x="127" y="890" width="133" height="60" as="geometry" />
        </mxCell>
        <mxCell id="OFctEyF973jwaN0Gu7Ld-40" style="edgeStyle=orthogonalEdgeStyle;rounded=0;orthogonalLoop=1;jettySize=auto;html=1;entryX=0.5;entryY=0;entryDx=0;entryDy=0;" edge="1" parent="1" source="OFctEyF973jwaN0Gu7Ld-36" target="OFctEyF973jwaN0Gu7Ld-38">
          <mxGeometry relative="1" as="geometry">
            <Array as="points">
              <mxPoint x="114" y="1010" />
              <mxPoint x="114" y="1050" />
            </Array>
          </mxGeometry>
        </mxCell>
        <mxCell id="OFctEyF973jwaN0Gu7Ld-36" value="prom &amp;gt; 6&amp;nbsp;" style="rhombus;whiteSpace=wrap;html=1;" vertex="1" parent="1">
          <mxGeometry x="153.5" y="990" width="80" height="40" as="geometry" />
        </mxCell>
        <mxCell id="OFctEyF973jwaN0Gu7Ld-38" value="&quot;Calificación &quot;, prom, &quot;Aprobado&quot;" style="shape=document;whiteSpace=wrap;html=1;boundedLbl=1;" vertex="1" parent="1">
          <mxGeometry x="60" y="1060" width="107" height="70" as="geometry" />
        </mxCell>
        <mxCell id="OFctEyF973jwaN0Gu7Ld-41" value="&quot;Calificación &quot;, prom, &quot;Reprobado&quot;" style="shape=document;whiteSpace=wrap;html=1;boundedLbl=1;" vertex="1" parent="1">
          <mxGeometry x="217" y="1060" width="120" height="60" as="geometry" />
        </mxCell>
        <mxCell id="OFctEyF973jwaN0Gu7Ld-46" style="edgeStyle=orthogonalEdgeStyle;rounded=0;orthogonalLoop=1;jettySize=auto;html=1;entryX=0.5;entryY=0;entryDx=0;entryDy=0;exitX=1;exitY=0.5;exitDx=0;exitDy=0;" edge="1" parent="1" source="OFctEyF973jwaN0Gu7Ld-36" target="OFctEyF973jwaN0Gu7Ld-41">
          <mxGeometry relative="1" as="geometry">
            <mxPoint x="277" y="1050" as="sourcePoint" />
            <Array as="points">
              <mxPoint x="277" y="1010" />
            </Array>
          </mxGeometry>
        </mxCell>
      </root>
    </mxGraphModel>
  </diagram>
</mxfile>
